<?xml version="1.0" encoding="iso-8859-1"?>
<!-- Uploaded to: SVG Repo, www.svgrepo.com, Generator: SVG Repo Mixer Tools -->
<svg fill="#000000" height="50px" width="40px" version="1.1" id="Layer_1" xmlns="http://www.w3.org/2000/svg" xmlns:xlink="http://www.w3.org/1999/xlink" 
	 viewBox="0 0 512.013 512.013" xml:space="preserve">
<g>
	<g>
		<g>
			<path
			fill="yellow"
			 d="M511.378,348.373c-1.493-4.267-5.547-7.04-10.027-7.04h-68.053l-39.573-79.467c-1.813-3.627-5.547-5.867-9.493-5.867
				c-4.053,0-7.68,2.24-9.493,5.867l-40,79.467h-68.053c-5.867,0-10.667,4.8-10.667,10.667c0,3.2,1.387,6.187,3.84,8.213
				l58.453,48.64l-29.653,89.067c-1.92,5.547,1.173,11.627,6.72,13.547c3.2,1.067,6.613,0.533,9.387-1.28l79.253-54.507l79.253,54.4
				c4.907,3.307,11.52,2.133,14.827-2.773c1.92-2.773,2.347-6.293,1.28-9.387l-29.653-89.067l58.453-48.64
				C511.592,357.333,512.872,352.533,511.378,348.373z M430.525,397.12c-3.413,2.773-4.693,7.36-3.307,11.627l21.973,65.813
				l-59.093-40.64c-3.627-2.453-8.427-2.453-12.053,0l-59.093,40.64l21.973-65.813c1.387-4.16,0.107-8.747-3.307-11.627
				l-41.493-34.453h45.227c4.053,0,7.68-2.24,9.493-5.867l33.28-66.24l32.96,66.24c1.813,3.627,5.547,5.973,9.6,5.867h45.227
				L430.525,397.12z"/>
			<path d="M213.352,384H97.085c4.373-5.653,7.573-12.16,9.28-19.093c0.213-0.853,0.32-1.707,0.32-2.56V128h320v74.347
				c0,5.333,3.84,10.133,9.067,10.88c6.613,0.96,12.267-4.16,12.267-10.56v-85.333c0-5.867-4.8-10.667-10.667-10.667h-32V64
				c0-5.867-4.8-10.667-10.667-10.667H168.551l-30.72-48.427C135.911,1.813,132.498,0,128.872,0H10.685
				C4.818,0,0.018,4.8,0.018,10.667v351.68c0,0.853,0.107,1.707,0.32,2.56c5.76,23.147,25.92,38.827,50.453,39.893
				c0.853,0.32,1.707,0.427,2.56,0.533h159.68c5.333,0,10.133-3.84,10.88-9.067C224.872,389.653,219.752,384,213.352,384z
				 M85.351,117.333V360.96c-4.8,16.747-20.16,22.72-32,22.72c-11.84,0-27.2-5.973-32-22.72V21.333h101.547l30.72,48.427
				c1.92,3.093,5.333,4.907,9.067,4.907h221.333v32h-288C90.152,106.667,85.351,111.467,85.351,117.333z"/>
		</g>
	</g>
</g>
</svg>